<svg width="24" height="24" viewBox="0 0 24 24" fill="none" xmlns="http://www.w3.org/2000/svg">
  <path d="M12 8.5A3.5 3.5 0 1 0 12 15.5A3.5 3.5 0 1 0 12 8.5Z" stroke="#D6E6FF" stroke-width="1.8"/>
  <path d="M4 13.2V10.8L6.05 10.1C6.2 9.65 6.38 9.22 6.61 8.83L5.66 6.93L7.35 5.24L9.25 6.19C9.64 5.96 10.07 5.78 10.52 5.63L11.2 3.6H13.6L14.28 5.63C14.73 5.78 15.16 5.96 15.55 6.19L17.45 5.24L19.14 6.93L18.19 8.83C18.42 9.22 18.6 9.65 18.75 10.1L20.8 10.8V13.2L18.75 13.9C18.6 14.35 18.42 14.78 18.19 15.17L19.14 17.07L17.45 18.76L15.55 17.81C15.16 18.04 14.73 18.22 14.28 18.37L13.6 20.4H11.2L10.52 18.37C10.07 18.22 9.64 18.04 9.25 17.81L7.35 18.76L5.66 17.07L6.61 15.17C6.38 14.78 6.2 14.35 6.05 13.9L4 13.2Z" stroke="#D6E6FF" stroke-width="1.8" stroke-linejoin="round"/>
</svg>
