<svg width="1440" height="900" viewBox="0 0 1440 900" xmlns="http://www.w3.org/2000/svg">
  <defs>
    <linearGradient id="bg" x1="0" y1="0" x2="1" y2="1">
      <stop offset="0%" stop-color="#070a12"/>
      <stop offset="100%" stop-color="#0f1728"/>
    </linearGradient>
    <linearGradient id="hero" x1="0" y1="0" x2="1" y2="0">
      <stop offset="0%" stop-color="#0f2f57" stop-opacity="0.0"/>
      <stop offset="50%" stop-color="#1a8cff" stop-opacity="0.35"/>
      <stop offset="100%" stop-color="#0f2f57" stop-opacity="0.0"/>
    </linearGradient>
    <filter id="shadow" x="-20%" y="-20%" width="140%" height="140%">
      <feDropShadow dx="0" dy="8" stdDeviation="10" flood-color="#000000" flood-opacity="0.45"/>
    </filter>
  </defs>

  <rect width="1440" height="900" fill="url(#bg)"/>
  <rect x="22" y="22" width="72" height="856" rx="18" fill="#0c111d" stroke="#1f2a40"/>
  <rect x="112" y="22" width="1306" height="856" rx="18" fill="#0b1019" stroke="#22304a"/>

  <rect x="40" y="64" width="36" height="36" rx="10" fill="#161f31"/>
  <rect x="40" y="116" width="36" height="36" rx="10" fill="#161f31"/>
  <rect x="40" y="168" width="36" height="36" rx="10" fill="#1b2d57" stroke="#2f74ff"/>
  <rect x="40" y="766" width="36" height="36" rx="10" fill="#161f31"/>

  <text x="140" y="64" fill="#cfd9ef" font-size="20" font-family="Segoe UI, Arial, sans-serif" font-weight="700">LUNAR CONTROL PANEL</text>
  <text x="140" y="92" fill="#7f94b9" font-size="14" font-family="Segoe UI, Arial, sans-serif">Style direction: dark esports + clean telemetry</text>

  <rect x="150" y="126" width="1226" height="270" rx="14" fill="#0a1220" stroke="#1d2a44" filter="url(#shadow)"/>
  <rect x="150" y="126" width="1226" height="270" rx="14" fill="url(#hero)"/>
  <text x="763" y="230" text-anchor="middle" fill="#e7eefc" font-size="52" font-family="Segoe UI, Arial, sans-serif" font-weight="800">READY TO RUN</text>
  <text x="763" y="272" text-anchor="middle" fill="#9ab0d2" font-size="24" font-family="Segoe UI, Arial, sans-serif">Start engine, monitor FPS, and manage your profile</text>
  <rect x="608" y="305" width="310" height="52" rx="10" fill="#ff6d1b"/>
  <text x="763" y="339" text-anchor="middle" fill="#ffffff" font-size="22" font-family="Segoe UI, Arial, sans-serif" font-weight="700">START SESSION</text>

  <rect x="150" y="420" width="400" height="210" rx="12" fill="#111a2b" stroke="#243551"/>
  <rect x="563" y="420" width="400" height="210" rx="12" fill="#111a2b" stroke="#243551"/>
  <rect x="976" y="420" width="400" height="210" rx="12" fill="#111a2b" stroke="#243551"/>

  <text x="176" y="456" fill="#dce6fb" font-size="22" font-family="Segoe UI, Arial, sans-serif" font-weight="700">ENGINE STATUS</text>
  <text x="176" y="500" fill="#30d17f" font-size="40" font-family="Segoe UI, Arial, sans-serif" font-weight="800">RUNNING</text>
  <text x="176" y="538" fill="#88a0c8" font-size="16" font-family="Segoe UI, Arial, sans-serif">Runtime 01:42:15</text>

  <text x="589" y="456" fill="#dce6fb" font-size="22" font-family="Segoe UI, Arial, sans-serif" font-weight="700">PERFORMANCE</text>
  <text x="589" y="500" fill="#f6f9ff" font-size="38" font-family="Segoe UI, Arial, sans-serif" font-weight="800">59 FPS</text>
  <text x="589" y="538" fill="#88a0c8" font-size="16" font-family="Segoe UI, Arial, sans-serif">Inference 12.3ms</text>

  <text x="1002" y="456" fill="#dce6fb" font-size="22" font-family="Segoe UI, Arial, sans-serif" font-weight="700">LICENSE</text>
  <text x="1002" y="500" fill="#2f74ff" font-size="38" font-family="Segoe UI, Arial, sans-serif" font-weight="800">ACTIVE</text>
  <text x="1002" y="538" fill="#88a0c8" font-size="16" font-family="Segoe UI, Arial, sans-serif">Remaining 29d 06h</text>

  <rect x="150" y="654" width="1226" height="200" rx="12" fill="#0f1626" stroke="#243551"/>
  <text x="176" y="692" fill="#dce6fb" font-size="22" font-family="Segoe UI, Arial, sans-serif" font-weight="700">LIVE LOGS</text>
  <text x="176" y="730" fill="#8ca0bf" font-size="14" font-family="Consolas, monospace">{ "level":"INFO", "message":"DXCam capture started" }</text>
  <text x="176" y="760" fill="#8ca0bf" font-size="14" font-family="Consolas, monospace">{ "level":"INFO", "message":"ONNX model loaded" }</text>
  <text x="176" y="790" fill="#8ca0bf" font-size="14" font-family="Consolas, monospace">{ "level":"INFO", "message":"Aimbot started" }</text>
</svg>
